<?xml version="1.0" encoding="utf-8"?>
<!-- Generator: Adobe Illustrator 21.1.0, SVG Export Plug-In . SVG Version: 6.00 Build 0)  -->
<svg version="1.1" id="Layer_1" xmlns="http://www.w3.org/2000/svg" xmlns:xlink="http://www.w3.org/1999/xlink" x="0px" y="0px"
	 viewBox="0 0 511 489.7" style="enable-background:new 0 0 511 489.7;" xml:space="preserve">
<style type="text/css">
	.st0{fill:#FFCF06;}
</style>
<title>gray</title>
<path class="st0" d="M509.7,185c-3.3-10.3-12.5-17.7-23.4-18.7L338.8,153L280.5,16.5c-5.9-13.8-21.8-20.2-35.6-14.4
	c-6.5,2.8-11.6,7.9-14.4,14.4L172.2,153L24.7,166.4c-15,1.4-26,14.6-24.6,29.6c0.6,6.9,3.9,13.4,9.2,18l111.5,97.8L87.9,456.5
	c-3.4,14.6,5.7,29.2,20.3,32.5c6.8,1.6,14,0.4,20.1-3.2l127.2-76l127.2,76c12.9,7.7,29.6,3.5,37.2-9.4c3.6-6,4.7-13.1,3.2-19.9
	l-32.9-144.8l111.5-97.8C509.9,206.8,513,195.4,509.7,185z"/>
</svg>
